<?xml version="1.0" encoding="UTF-8"?>
<svg width="193px" height="32px" viewBox="0 0 193 32" version="1.1" xmlns="http://www.w3.org/2000/svg" xmlns:xlink="http://www.w3.org/1999/xlink">
    <!-- Generator: Sketch 41.2 (35397) - http://www.bohemiancoding.com/sketch -->
    <title>Logo</title>
    <desc>Created with Sketch.</desc>
    <defs>
        <linearGradient x1="6.64284455%" y1="50%" x2="106.391152%" y2="50%" id="linearGradient-1">
            <stop stop-color="#CB2642" offset="0%"></stop>
            <stop stop-color="#FF4422" offset="100%"></stop>
        </linearGradient>
    </defs>
    <g id="Final-versions" stroke="none" stroke-width="1" fill="none" fill-rule="evenodd">
        <g id="Home-page-hamburger-menu" transform="translate(-17.000000, -20.000000)">
            <g id="Logo" transform="translate(16.000000, 19.000000)">
                <path d="M58.1474214,21.9425207 C57.8944725,21.6895718 57.768,21.3462892 57.768,20.9126625 L57.768,12.6273375 C57.768,12.2040353 57.8944725,11.8659148 58.1474214,11.6129659 C58.4003703,11.360017 58.7436529,11.2335445 59.1772796,11.2335445 C59.6212307,11.2335445 59.9722565,11.360017 60.2303676,11.6129659 C60.4884787,11.8659148 60.6175323,12.2040353 60.6175323,12.6273375 L60.6175323,20.9126625 C60.6175323,21.3462892 60.4884787,21.6895718 60.2303676,21.9425207 C59.9722565,22.1954695 59.6212307,22.3219421 59.1772796,22.3219421 C58.7436529,22.3219421 58.4003703,22.1954695 58.1474214,21.9425207 Z M72.2195685,11.6207092 C72.4725173,11.8788203 72.5989899,12.2143597 72.5989899,12.6273375 L72.5989899,20.9126625 C72.5989899,21.3359647 72.4750984,21.6766663 72.2273118,21.9347774 C71.9795251,22.1928885 71.6594721,22.3219421 71.2671432,22.3219421 C70.8025433,22.3219421 70.4515174,22.1670777 70.2140552,21.8573444 L65.5061322,15.9879273 L65.5061322,20.9126625 C65.5061322,21.3359647 65.3874029,21.6766663 65.1499407,21.9347774 C64.9124785,22.1928885 64.5924255,22.3219421 64.1897722,22.3219421 C63.7974433,22.3219421 63.4773903,22.1928885 63.2296037,21.9347774 C62.981817,21.6766663 62.8579255,21.3359647 62.8579255,20.9126625 L62.8579255,12.6273375 C62.8579255,12.2143597 62.981817,11.8788203 63.2296037,11.6207092 C63.4773903,11.3625981 63.7974433,11.2335445 64.1897722,11.2335445 C64.6337233,11.2335445 64.979587,11.3884088 65.2273736,11.6981422 L69.9352966,17.5520727 L69.9352966,12.6273375 C69.9352966,12.2040353 70.056607,11.8659148 70.2992314,11.6129659 C70.5418559,11.360017 70.8593278,11.2335445 71.2516567,11.2335445 C71.6439855,11.2335445 71.9666196,11.3625981 72.2195685,11.6207092 Z M77.6966587,21.9270341 C77.4333854,21.6740852 77.3017507,21.3359647 77.3017507,20.9126625 L77.3017507,13.6184792 L75.1181417,13.6184792 C74.6638661,13.6184792 74.3257457,13.5229795 74.1037701,13.3319773 C73.8817946,13.1409751 73.7708084,12.8493139 73.7708084,12.456985 C73.7708084,12.0646561 73.8817946,11.775576 74.1037701,11.589736 C74.3257457,11.403896 74.6638661,11.3109774 75.1181417,11.3109774 L82.3658652,11.3109774 C82.8201408,11.3109774 83.1582612,11.403896 83.3802368,11.589736 C83.6022123,11.775576 83.7131985,12.0646561 83.7131985,12.456985 C83.7131985,12.8493139 83.6022123,13.1409751 83.3802368,13.3319773 C83.1582612,13.5229795 82.8201408,13.6184792 82.3658652,13.6184792 L80.1822562,13.6184792 L80.1822562,20.9126625 C80.1822562,21.3359647 80.0506215,21.6740852 79.7873482,21.9270341 C79.5240749,22.179983 79.1756301,22.3064555 78.7420035,22.3064555 C78.3083768,22.3064555 77.959932,22.179983 77.6966587,21.9270341 Z M85.225722,21.8883176 C84.9985842,21.6611798 84.885017,21.3359647 84.885017,20.9126625 L84.885017,12.6273375 C84.885017,12.2040353 84.9985842,11.8788202 85.225722,11.6516824 C85.4528597,11.4245446 85.7780749,11.3109774 86.2013771,11.3109774 L91.5597368,11.3109774 C92.0036879,11.3109774 92.3392273,11.403896 92.5663651,11.589736 C92.7935028,11.775576 92.90707,12.0440076 92.90707,12.3950387 C92.90707,13.1383986 92.4579634,13.5100731 91.5597368,13.5100731 L87.6571164,13.5100731 L87.6571164,15.585276 L91.250005,15.585276 C92.1482317,15.585276 92.5973382,15.9517882 92.5973382,16.6848238 C92.5973382,17.0358549 92.4837711,17.3042864 92.2566333,17.4901264 C92.0294955,17.6759664 91.6939561,17.768885 91.250005,17.768885 L87.6571164,17.768885 L87.6571164,20.0299269 L91.5597368,20.0299269 C92.4579634,20.0299269 92.90707,20.4016014 92.90707,21.1449613 C92.90707,21.4959924 92.7935028,21.764424 92.5663651,21.950264 C92.3392273,22.136104 92.0036879,22.2290226 91.5597368,22.2290226 L86.2013771,22.2290226 C85.7780749,22.2290226 85.4528597,22.1154554 85.225722,21.8883176 Z M103.850926,21.2069077 C103.850926,21.5372899 103.714129,21.8134646 103.440532,22.0354402 C103.166934,22.2574157 102.849462,22.3684019 102.488106,22.3684019 C102.24032,22.3684019 102.008023,22.3116183 101.79121,22.1980494 C101.574396,22.0844805 101.388559,21.9141297 101.233693,21.6869919 L99.2204361,18.7445401 C99.0758938,18.5380512 98.9236106,18.3857679 98.7635817,18.2876857 C98.6035528,18.1896035 98.4151345,18.1405631 98.1983212,18.1405631 L97.1916929,18.1405631 L97.1916929,20.9126625 C97.1916929,21.3462892 97.0678015,21.6895718 96.8200148,21.9425207 C96.5722281,22.1954695 96.2315266,22.3219421 95.7978999,22.3219421 C95.3642733,22.3219421 95.0209907,22.1954695 94.7680418,21.9425207 C94.5150929,21.6895718 94.3886204,21.3462892 94.3886204,20.9126625 L94.3886204,12.6273375 C94.3886204,12.2040353 94.5021875,11.8788202 94.7293253,11.6516824 C94.9564631,11.4245446 95.2816782,11.3109774 95.7049804,11.3109774 L99.5921142,11.3109774 C100.913643,11.3109774 101.907356,11.5974765 102.573283,12.1704831 C103.239209,12.7434898 103.572168,13.572014 103.572168,14.6560806 C103.572168,15.4820362 103.345033,16.1815068 102.890758,16.7545134 C102.436482,17.3275201 101.796376,17.7120998 100.970421,17.9082643 C101.311127,17.9598865 101.607951,18.0734537 101.860899,18.2489692 C102.113848,18.4244848 102.364212,18.6877542 102.611999,19.0387853 L103.572168,20.4170917 C103.758008,20.6958517 103.850926,20.959121 103.850926,21.2069077 Z M100.49808,15.7091687 C100.771677,15.5130042 100.908474,15.1929513 100.908474,14.7490002 C100.908474,14.2947246 100.771677,13.9669284 100.49808,13.7656018 C100.224482,13.5642751 99.7727942,13.4636133 99.1430031,13.4636133 L97.1607197,13.4636133 L97.1607197,16.0034139 L99.1430031,16.0034139 C99.7727942,16.0034139 100.224482,15.9053331 100.49808,15.7091687 Z M105.982913,21.9347774 C105.724802,21.6766663 105.595748,21.3359647 105.595748,20.9126625 L105.595748,12.6273375 C105.595748,12.2040353 105.709316,11.8788202 105.936453,11.6516824 C106.163591,11.4245446 106.488806,11.3109774 106.912109,11.3109774 L112.115602,11.3109774 C112.580202,11.3109774 112.920904,11.401315 113.137717,11.5819927 C113.354531,11.7626705 113.462936,12.0491696 113.462936,12.4414984 C113.462936,12.8235029 113.351949,13.1022587 113.129974,13.2777742 C112.907998,13.4532898 112.569878,13.5410462 112.115602,13.5410462 L108.398821,13.5410462 L108.398821,15.5543028 L111.805871,15.5543028 C112.260146,15.5543028 112.598267,15.6472214 112.820242,15.8330614 C113.042218,16.0189014 113.153204,16.3028193 113.153204,16.6848238 C113.153204,17.0668282 113.042218,17.345584 112.820242,17.5210996 C112.598267,17.6966151 112.260146,17.7843716 111.805871,17.7843716 L108.398821,17.7843716 L108.398821,20.9126625 C108.398821,21.3462892 108.272348,21.6895718 108.0194,21.9425207 C107.766451,22.1954695 107.42833,22.3219421 107.005028,22.3219421 C106.581726,22.3219421 106.241024,22.1928885 105.982913,21.9347774 Z M124.577144,21.0520418 C124.577144,21.3927485 124.440347,21.6818286 124.16675,21.9192908 C123.893152,22.156753 123.580842,22.2754823 123.229811,22.2754823 C122.992349,22.2754823 122.775539,22.2135366 122.579374,22.0896433 C122.38321,21.9657499 122.228345,21.7799127 122.114777,21.5321261 L121.41788,19.9679806 L116.400225,19.9679806 L115.687842,21.5321261 C115.574273,21.7799127 115.416828,21.9657499 115.215501,22.0896433 C115.014175,22.2135366 114.794783,22.2754823 114.557321,22.2754823 C114.20629,22.2754823 113.888818,22.156753 113.604896,21.9192908 C113.320974,21.6818286 113.179015,21.3927485 113.179015,21.0520418 C113.179015,20.8662018 113.225474,20.6752025 113.318394,20.479038 L117.406854,12.0853069 C117.541071,11.8065469 117.739814,11.5923179 118.003087,11.4426134 C118.266361,11.292909 118.558022,11.2180579 118.878079,11.2180579 C119.187813,11.2180579 119.476893,11.292909 119.745328,11.4426134 C120.013764,11.5923179 120.215088,11.8065469 120.349305,12.0853069 L124.437765,20.479038 C124.530685,20.6752025 124.577144,20.8662018 124.577144,21.0520418 Z M117.360394,17.8308313 L120.457712,17.8308313 L118.909053,14.377322 L117.360394,17.8308313 Z M128.033235,21.6869919 C127.212441,21.2327164 126.577497,20.5822862 126.128384,19.7356818 C125.679271,18.8890773 125.454718,17.8979456 125.454718,16.7622567 C125.454718,15.6368923 125.679271,14.6509227 126.128384,13.8043182 C126.577497,12.9577138 127.212441,12.3072836 128.033235,11.8530081 C128.854028,11.3987325 129.811606,11.1715981 130.905997,11.1715981 C132.217201,11.1715981 133.368359,11.5174618 134.359506,12.2091996 C134.535022,12.3330929 134.661494,12.4673087 134.738928,12.6118509 C134.816361,12.7563931 134.855077,12.9422303 134.855077,13.1693681 C134.855077,13.4894259 134.764739,13.7604385 134.584062,13.982414 C134.403384,14.2043896 134.183993,14.3153757 133.925882,14.3153757 C133.771015,14.3153757 133.631637,14.292146 133.507744,14.245686 C133.38385,14.199226 133.23931,14.1243749 133.074119,14.0211305 C132.712764,13.8043172 132.372062,13.6494528 132.052004,13.5565328 C131.731947,13.4636128 131.401569,13.4171535 131.060863,13.4171535 C130.141987,13.4171535 129.458003,13.6933283 129.00889,14.245686 C128.559776,14.7980438 128.335223,15.6368923 128.335223,16.7622567 C128.335223,17.8979456 128.559776,18.7419562 129.00889,19.294314 C129.458003,19.8466717 130.141987,20.1228465 131.060863,20.1228465 C131.370596,20.1228465 131.67,20.0738061 131.959085,19.9757239 C132.248169,19.8776417 132.619844,19.7253584 133.074119,19.5188695 C133.290933,19.4053006 133.450959,19.3278685 133.554203,19.2865707 C133.657448,19.2452729 133.781339,19.2246243 133.925882,19.2246243 C134.183993,19.2246243 134.403384,19.3356104 134.584062,19.557586 C134.764739,19.7795615 134.855077,20.0505741 134.855077,20.3706319 C134.855077,20.5874452 134.816361,20.7707014 134.738928,20.9204058 C134.661494,21.0701102 134.535022,21.2069071 134.359506,21.3308004 C133.368359,22.0225382 132.217201,22.3684019 130.905997,22.3684019 C129.811606,22.3684019 128.854028,22.1412675 128.033235,21.6869919 Z M136.832198,21.8883176 C136.60506,21.6611798 136.491493,21.3359647 136.491493,20.9126625 L136.491493,12.6273375 C136.491493,12.2040353 136.60506,11.8788202 136.832198,11.6516824 C137.059336,11.4245446 137.384551,11.3109774 137.807853,11.3109774 L143.166213,11.3109774 C143.610164,11.3109774 143.945703,11.403896 144.172841,11.589736 C144.399979,11.775576 144.513546,12.0440076 144.513546,12.3950387 C144.513546,13.1383986 144.06444,13.5100731 143.166213,13.5100731 L139.263593,13.5100731 L139.263593,15.585276 L142.856481,15.585276 C143.754708,15.585276 144.203814,15.9517882 144.203814,16.6848238 C144.203814,17.0358549 144.090247,17.3042864 143.863109,17.4901264 C143.635972,17.6759664 143.300432,17.768885 142.856481,17.768885 L139.263593,17.768885 L139.263593,20.0299269 L143.166213,20.0299269 C144.06444,20.0299269 144.513546,20.4016014 144.513546,21.1449613 C144.513546,21.4959924 144.399979,21.764424 144.172841,21.950264 C143.945703,22.136104 143.610164,22.2290226 143.166213,22.2290226 L137.807853,22.2290226 C137.384551,22.2290226 137.059336,22.1154554 136.832198,21.8883176 Z M147.644418,22.0973866 C146.937194,21.9167088 146.356452,21.6663448 145.902177,21.346287 C145.726661,21.2120692 145.600189,21.0726913 145.522756,20.9281491 C145.445322,20.7836069 145.406606,20.5977697 145.406606,20.3706319 C145.406606,20.0608986 145.499525,19.7924671 145.685365,19.5653293 C145.871205,19.3381915 146.088015,19.2246243 146.335801,19.2246243 C146.470019,19.2246243 146.599073,19.2452729 146.722966,19.2865707 C146.846859,19.3278685 147.001724,19.4053006 147.187564,19.5188695 C147.610866,19.7563317 148.031581,19.9266825 148.449721,20.0299269 C148.867861,20.1331714 149.340197,20.1847928 149.866744,20.1847928 C150.475886,20.1847928 150.937898,20.0944553 151.252793,19.9137775 C151.567689,19.7330998 151.725134,19.4672493 151.725134,19.1162182 C151.725134,18.878756 151.578013,18.6748513 151.283767,18.5044979 C150.98952,18.3341446 150.429427,18.1663749 149.603472,18.0011838 C148.581352,17.7843705 147.781219,17.5262633 147.20305,17.2268544 C146.624882,16.9274455 146.219653,16.5738386 145.987353,16.166023 C145.755053,15.7582075 145.638905,15.2652227 145.638905,14.6870538 C145.638905,14.0262894 145.835066,13.4274806 146.227395,12.8906095 C146.619724,12.3537384 147.159168,11.9330236 147.845744,11.6284525 C148.532319,11.3238814 149.30406,11.1715981 150.160989,11.1715981 C150.914673,11.1715981 151.585752,11.2541925 152.174245,11.4193836 C152.762739,11.5845747 153.299602,11.8426819 153.784851,12.193713 C153.970691,12.3279308 154.102325,12.4698898 154.179759,12.6195942 C154.257192,12.7692986 154.295908,12.9525548 154.295908,13.1693681 C154.295908,13.4791014 154.205571,13.7475329 154.024893,13.9746707 C153.844215,14.2018085 153.629986,14.3153757 153.382199,14.3153757 C153.247982,14.3153757 153.12409,14.2973082 153.010521,14.2611726 C152.896952,14.2250371 152.736926,14.1450238 152.530437,14.0211305 C152.478815,13.9901572 152.331694,13.9101439 152.089069,13.7810884 C151.846445,13.6520328 151.562527,13.5487899 151.237307,13.4713566 C150.912087,13.3939233 150.55848,13.3552072 150.176475,13.3552072 C149.649929,13.3552072 149.226633,13.455869 148.906575,13.6571956 C148.586517,13.8585223 148.426491,14.1243728 148.426491,14.454755 C148.426491,14.6509194 148.483275,14.8109459 148.596843,14.9348392 C148.710412,15.0587326 148.92206,15.180043 149.231794,15.2987741 C149.541527,15.4175052 150.000958,15.5388156 150.6101,15.6627089 C151.601247,15.8795222 152.38073,16.1402105 152.948575,16.4447816 C153.516419,16.7493527 153.919067,17.1029596 154.156529,17.505613 C154.393991,17.9082663 154.51272,18.3831836 154.51272,18.9303791 C154.51272,19.6117925 154.321721,20.2131823 153.939717,20.7345667 C153.557712,21.2559512 153.02343,21.6585984 152.336855,21.9425207 C151.650279,22.2264429 150.852728,22.3684019 149.944177,22.3684019 C149.118221,22.3684019 148.351643,22.2780643 147.644418,22.0973866 Z M156.265286,21.8883176 C155.981364,21.5992332 155.839405,21.2430452 155.839405,20.819743 C155.839405,20.3964408 155.981364,20.0402528 156.265286,19.7511683 C156.549208,19.4620839 156.907977,19.3175439 157.341604,19.3175439 C157.764906,19.3175439 158.118513,19.4620839 158.402435,19.7511683 C158.686357,20.0402528 158.828316,20.3964408 158.828316,20.819743 C158.828316,21.2430452 158.686357,21.5992332 158.402435,21.8883176 C158.118513,22.177402 157.764906,22.3219421 157.341604,22.3219421 C156.907977,22.3219421 156.549208,22.177402 156.265286,21.8883176 Z" id="INTERFACES." fill="#1E2022"></path>
                <path d="M161.391347,21.9425207 C161.138398,21.6895718 161.011925,21.3462892 161.011925,20.9126625 L161.011925,12.6273375 C161.011925,12.2040353 161.125493,11.8788202 161.35263,11.6516824 C161.579768,11.4245446 161.904983,11.3109774 162.328285,11.3109774 L166.292852,11.3109774 C167.500812,11.3109774 168.440322,11.6181251 169.111411,12.2324295 C169.7825,12.8467339 170.11804,13.7010688 170.11804,14.7954599 C170.11804,15.8795266 169.779919,16.7312804 169.103668,17.3507471 C168.427417,17.9702137 167.490488,18.2799424 166.292852,18.2799424 L163.861458,18.2799424 L163.861458,20.9126625 C163.861458,21.3462892 163.732404,21.6895718 163.474293,21.9425207 C163.216182,22.1954695 162.865156,22.3219421 162.421205,22.3219421 C161.987578,22.3219421 161.644296,22.1954695 161.391347,21.9425207 Z M165.905687,16.1427932 C166.432234,16.1427932 166.821976,16.0343881 167.074925,15.8175748 C167.327874,15.6007615 167.454346,15.2652221 167.454346,14.8109465 C167.454346,13.9127199 166.938132,13.4636133 165.905687,13.4636133 L163.861458,13.4636133 L163.861458,16.1427932 L165.905687,16.1427932 Z M181.216762,21.2069077 C181.216762,21.5372899 181.079965,21.8134646 180.806367,22.0354402 C180.532769,22.2574157 180.215297,22.3684019 179.853942,22.3684019 C179.606155,22.3684019 179.373859,22.3116183 179.157045,22.1980494 C178.940232,22.0844805 178.754395,21.9141297 178.599528,21.6869919 L176.586272,18.7445401 C176.441729,18.5380512 176.289446,18.3857679 176.129417,18.2876857 C175.969388,18.1896035 175.78097,18.1405631 175.564157,18.1405631 L174.557528,18.1405631 L174.557528,20.9126625 C174.557528,21.3462892 174.433637,21.6895718 174.18585,21.9425207 C173.938064,22.1954695 173.597362,22.3219421 173.163735,22.3219421 C172.730109,22.3219421 172.386826,22.1954695 172.133877,21.9425207 C171.880928,21.6895718 171.754456,21.3462892 171.754456,20.9126625 L171.754456,12.6273375 C171.754456,12.2040353 171.868023,11.8788202 172.095161,11.6516824 C172.322299,11.4245446 172.647514,11.3109774 173.070816,11.3109774 L176.95795,11.3109774 C178.279479,11.3109774 179.273191,11.5974765 179.939118,12.1704831 C180.605045,12.7434898 180.938003,13.572014 180.938003,14.6560806 C180.938003,15.4820362 180.710869,16.1815068 180.256593,16.7545134 C179.802318,17.3275201 179.162212,17.7120998 178.336256,17.9082643 C178.676963,17.9598865 178.973786,18.0734537 179.226735,18.2489692 C179.479684,18.4244848 179.730048,18.6877542 179.977834,19.0387853 L180.938003,20.4170917 C181.123843,20.6958517 181.216762,20.959121 181.216762,21.2069077 Z M177.863915,15.7091687 C178.137513,15.5130042 178.27431,15.1929513 178.27431,14.7490002 C178.27431,14.2947246 178.137513,13.9669284 177.863915,13.7656018 C177.590317,13.5642751 177.13863,13.4636133 176.508839,13.4636133 L174.526555,13.4636133 L174.526555,16.0034139 L176.508839,16.0034139 C177.13863,16.0034139 177.590317,15.9053331 177.863915,15.7091687 Z M185.168423,21.6792487 C184.34763,21.2198109 183.715267,20.5693807 183.271316,19.7279385 C182.827365,18.8864963 182.605392,17.8979456 182.605392,16.7622567 C182.605392,15.6265678 182.827365,14.6380171 183.271316,13.7965749 C183.715267,12.9551327 184.34763,12.3072836 185.168423,11.8530081 C185.989216,11.3987325 186.957118,11.1715981 188.072158,11.1715981 C189.187198,11.1715981 190.1551,11.3987325 190.975894,11.8530081 C191.796687,12.3072836 192.426469,12.9551327 192.865257,13.7965749 C193.304046,14.6380171 193.523437,15.6265678 193.523437,16.7622567 C193.523437,17.8979456 193.301465,18.8864963 192.857514,19.7279385 C192.413563,20.5693807 191.7812,21.2198109 190.960407,21.6792487 C190.139614,22.1386864 189.176874,22.3684019 188.072158,22.3684019 C186.957118,22.3684019 185.989216,22.1386864 185.168423,21.6792487 Z M190.007982,19.3098006 C190.472582,18.7264695 190.704878,17.8772967 190.704878,16.7622567 C190.704878,15.6472167 190.470001,14.800625 190.000239,14.2224561 C189.530476,13.6442873 188.887789,13.3552072 188.072158,13.3552072 C187.246203,13.3552072 186.600935,13.6417062 186.136335,14.2147128 C185.671735,14.7877195 185.439438,15.6368923 185.439438,16.7622567 C185.439438,17.8876211 185.671735,18.739375 186.136335,19.3175439 C186.600935,19.8957127 187.246203,20.1847928 188.072158,20.1847928 C188.898114,20.1847928 189.543382,19.8931317 190.007982,19.3098006 Z" id="PRO" fill="#F23D2A"></path>
                <g id="Graphics" transform="translate(0.052182, 0.500000)">
                    <path d="M0.947817837,7.96420255 C0.947817837,4.65250488 3.61187616,1.57834207 6.90438433,1.20812452 C6.90438433,1.20812452 9.10596491,0.5 22.0474383,0.5 C34.9889118,0.5 37.2123459,1.2102736 37.2123459,1.2102736 C40.4899973,1.62866789 43.1470588,4.64640473 43.1470588,7.96420255 L43.1470588,24.9963175 C43.1470588,28.3080152 40.4892474,31.3828101 37.2041875,31.7595857 C37.2041875,31.7595857 34.6808165,32.5 22.0474383,32.5 C9.41406018,32.5 6.87975806,31.7584818 6.87975806,31.7584818 C3.60363794,31.3355393 0.947817837,28.3141153 0.947817837,24.9963175 L0.947817837,7.96420255 Z" id="Rectangle-5" fill="url(#linearGradient-1)"></path>
                    <rect id="Rectangle-2" fill="#FFFFFF" opacity="0.65" x="12" y="12" width="14.0664137" height="14" rx="2"></rect>
                    <rect id="Rectangle-2-Copy" fill="#FFFFFF" opacity="0.65" x="18.028463" y="7" width="14.0664137" height="14" rx="2"></rect>
                </g>
            </g>
        </g>
    </g>
</svg>